HIERARCHY
ROOT Storm:Solving:Root
{
	OFFSET 0.000000 0.000000 0.000000
	CHANNELS 6 Xposition Yposition Zposition Xrotation Yrotation Zrotation
	JOINT Storm:Solving:L_Clav
	{
		OFFSET 0.000000 0.000000 0.000000
		CHANNELS 6 Xposition Yposition Zposition Xrotation Yrotation Zrotation
		JOINT Storm:Solving:L_Scapula_Joint
		{
			OFFSET 4.000000 0.000000 0.000000
			CHANNELS 6 Xposition Yposition Zposition Xrotation Yrotation Zrotation
			JOINT Storm:Solving:L_Shoulder_Joint
			{
				OFFSET 4.002680 -11.084217 10.770057
				CHANNELS 6 Xposition Yposition Zposition Xrotation Yrotation Zrotation
				JOINT Storm:Solving:L_Elbow_Joint
				{
					OFFSET 2.147804 -15.161016 -8.035206
					CHANNELS 6 Xposition Yposition Zposition Xrotation Yrotation Zrotation
					JOINT Storm:Solving:L_Wrist_Joint
					{
						OFFSET -2.240269 -20.029085 -9.040075
						CHANNELS 6 Xposition Yposition Zposition Xrotation Yrotation Zrotation
						JOINT Storm:Solving:L_Paw_Joint
						{
							OFFSET 0.706234 -5.721245 1.834930
							CHANNELS 6 Xposition Yposition Zposition Xrotation Yrotation Zrotation
							JOINT Storm:Solving:NewBone_4
							{
								OFFSET 1.343818 -3.510090 4.244948
								CHANNELS 6 Xposition Yposition Zposition Xrotation Yrotation Zrotation
								End Site
								{
									OFFSET 5.410949 0.263100 -1.672891
								}
							}
						}
					}
				}
			}
		}
	}
	JOINT Storm:Solving:R_Clav
	{
		OFFSET 0.000000 0.000000 0.000000
		CHANNELS 6 Xposition Yposition Zposition Xrotation Yrotation Zrotation
		JOINT Storm:Solving:R_Scapula_Joint
		{
			OFFSET -4.000000 -0.000000 0.000001
			CHANNELS 6 Xposition Yposition Zposition Xrotation Yrotation Zrotation
			JOINT Storm:Solving:NewBone_3
			{
				OFFSET -4.614829 -11.686039 9.889529
				CHANNELS 6 Xposition Yposition Zposition Xrotation Yrotation Zrotation
				JOINT Storm:Solving:R_Elbow_Joint
				{
					OFFSET -0.160743 -16.404385 -5.491840
					CHANNELS 6 Xposition Yposition Zposition Xrotation Yrotation Zrotation
					JOINT Storm:Solving:R_Wrist_Joint
					{
						OFFSET 2.412016 -21.935680 1.190893
						CHANNELS 6 Xposition Yposition Zposition Xrotation Yrotation Zrotation
						JOINT Storm:Solving:R_Paw_Joint
						{
							OFFSET -0.535018 -3.351765 3.806499
							CHANNELS 6 Xposition Yposition Zposition Xrotation Yrotation Zrotation
							JOINT Storm:Solving:NewBone_5
							{
								OFFSET -0.877549 -2.975662 5.252175
								CHANNELS 6 Xposition Yposition Zposition Xrotation Yrotation Zrotation
								End Site
								{
									OFFSET 5.926299 0.585030 1.321637
								}
							}
						}
					}
				}
			}
		}
	}
	JOINT Storm:Solving:Root_To_Spine_Dummy
	{
		OFFSET 0.000000 0.000000 0.000000
		CHANNELS 6 Xposition Yposition Zposition Xrotation Yrotation Zrotation
		JOINT Storm:Solving:Spine1
		{
			OFFSET 0.000000 0.000000 -3.827275
			CHANNELS 6 Xposition Yposition Zposition Xrotation Yrotation Zrotation
			JOINT Storm:Solving:Spine2
			{
				OFFSET 0.000001 0.000000 -16.939260
				CHANNELS 6 Xposition Yposition Zposition Xrotation Yrotation Zrotation
				JOINT Storm:Solving:Spine3
				{
					OFFSET 0.000002 0.000000 -14.393892
					CHANNELS 6 Xposition Yposition Zposition Xrotation Yrotation Zrotation
					JOINT Storm:Solving:Pelvis_Root
					{
						OFFSET 0.000002 0.000000 -14.393890
						CHANNELS 6 Xposition Yposition Zposition Xrotation Yrotation Zrotation
						JOINT Storm:Solving:L_Pelvis
						{
							OFFSET 0.000000 0.000000 0.000000
							CHANNELS 6 Xposition Yposition Zposition Xrotation Yrotation Zrotation
							JOINT Storm:Solving:LFemur_Joint
							{
								OFFSET 8.318080 -6.780918 -6.728058
								CHANNELS 6 Xposition Yposition Zposition Xrotation Yrotation Zrotation
								JOINT Storm:Solving:LTibia_Joint
								{
									OFFSET 4.762119 -18.232958 12.109562
									CHANNELS 6 Xposition Yposition Zposition Xrotation Yrotation Zrotation
									JOINT Storm:Solving:LAnkle_Joint
									{
										OFFSET 1.748854 -18.426313 -12.690502
										CHANNELS 6 Xposition Yposition Zposition Xrotation Yrotation Zrotation
										JOINT Storm:Solving:LFoot_Joint
										{
											OFFSET 2.893215 -10.324425 3.420891
											CHANNELS 6 Xposition Yposition Zposition Xrotation Yrotation Zrotation
											JOINT Storm:Solving:LFoot_End
											{
												OFFSET 3.317142 -1.153622 6.178677
												CHANNELS 6 Xposition Yposition Zposition Xrotation Yrotation Zrotation
												End Site
												{
													OFFSET 6.285072 0.685661 -3.246243
												}
											}
										}
									}
								}
							}
						}
						JOINT Storm:Solving:R_Pelvis
						{
							OFFSET 0.000000 0.000000 0.000000
							CHANNELS 6 Xposition Yposition Zposition Xrotation Yrotation Zrotation
							JOINT Storm:Solving:RFemur_Joint
							{
								OFFSET -8.082922 -7.104603 -6.553699
								CHANNELS 6 Xposition Yposition Zposition Xrotation Yrotation Zrotation
								JOINT Storm:Solving:RTibia_Joint
								{
									OFFSET -3.034004 -18.950596 11.551186
									CHANNELS 6 Xposition Yposition Zposition Xrotation Yrotation Zrotation
									JOINT Storm:Solving:RAnkle_Joint
									{
										OFFSET 0.163292 -19.936810 -10.210636
										CHANNELS 6 Xposition Yposition Zposition Xrotation Yrotation Zrotation
										JOINT Storm:Solving:RFoot_Joint
										{
											OFFSET -0.793680 -9.967937 0.101715
											CHANNELS 6 Xposition Yposition Zposition Xrotation Yrotation Zrotation
											JOINT Storm:Solving:RFoot_End
											{
												OFFSET -4.434014 -1.490955 4.525612
												CHANNELS 6 Xposition Yposition Zposition Xrotation Yrotation Zrotation
												End Site
												{
													OFFSET -4.697033 0.328136 -4.493862
												}
											}
										}
									}
								}
							}
						}
					}
				}
			}
		}
	}
	JOINT Storm:Solving:Root_To_Neck
	{
		OFFSET 0.000000 0.000000 0.000000
		CHANNELS 6 Xposition Yposition Zposition Xrotation Yrotation Zrotation
		JOINT Storm:Solving:Neck1
		{
			OFFSET 0.000000 4.185541 5.729186
			CHANNELS 6 Xposition Yposition Zposition Xrotation Yrotation Zrotation
			JOINT Storm:Solving:Neck2
			{
				OFFSET 2.125778 5.862305 7.100437
				CHANNELS 6 Xposition Yposition Zposition Xrotation Yrotation Zrotation
				JOINT Storm:Solving:Head
				{
					OFFSET -4.381103 5.689912 1.801980
					CHANNELS 6 Xposition Yposition Zposition Xrotation Yrotation Zrotation
					JOINT Storm:Solving:Head_End
					{
						OFFSET -9.753127 2.579648 15.562063
						CHANNELS 6 Xposition Yposition Zposition Xrotation Yrotation Zrotation
						End Site
						{
							OFFSET -4.085257 17.259090 -5.421284
						}
					}
				}
			}
		}
	}
	JOINT Storm:Solving:R_Clav_1
	{
		OFFSET 0.000000 0.000000 0.000000
		CHANNELS 6 Xposition Yposition Zposition Xrotation Yrotation Zrotation
		End Site
		{
			OFFSET 0.000000 0.010000 -0.000000
		}
	}
}
MOTION
Frames: 4
Frame Time: 0.008333
-0.949244 57.040962 -196.408325 -9.624936 -14.286952 -1.201967 -0.000002 0.000004 -0.000022 1.661407 -0.292828 -9.993054 4.000000 0.000003 -0.000010 2.203623 -1.187192 8.095565 4.002677 -11.084212 10.770057 -9.386122 4.300370 -7.155994 2.147802 -15.161016 -8.035190 -20.479301 -10.850211 -2.488834 -2.240272 -20.029095 -9.040070 10.982442 -18.012645 1.489638 0.706240 -5.721249 1.834931 14.049902 0.146353 -4.379845 1.343827 -3.510093 4.244967 0.000005 0.000003 0.000001 -0.000002 0.000004 -0.000022 5.363290 -0.409962 -4.358367 -3.999998 -0.000003 0.000024 5.391017 0.243128 3.346861 -4.614830 -11.686045 9.889532 2.370213 -0.553413 9.428144 -0.160748 -16.404387 -5.491832 6.874132 0.714472 -0.387942 2.412018 -21.935682 1.190902 2.256878 5.652598 -8.273260 -0.535009 -3.351779 3.806492 -11.642682 -0.876980 -2.689756 -0.877539 -2.975670 5.252162 -0.000000 0.000001 0.000003 -0.000002 0.000004 -0.000022 -0.000001 -0.000000 -0.000000 -0.000003 0.000003 -3.827291 8.403422 -2.698447 1.921416 0.000006 0.000004 -16.939274 7.841113 12.619241 -41.052080 0.000005 -0.000004 -14.393882 3.641395 -25.857238 44.753005 0.000013 0.000002 -14.393928 -0.549894 8.431275 -12.959455 -0.000012 0.000003 0.000000 -0.000000 0.000000 0.000003 8.318079 -6.780921 -6.728071 -7.826522 7.794104 -0.105008 4.762118 -18.232954 12.109550 -7.741091 -1.797523 1.290513 1.748851 -18.426302 -12.690533 -4.103318 -0.473828 2.318585 2.893215 -10.324434 3.420891 16.387794 0.559842 -8.565455 3.317155 -1.153629 6.178700 -0.000000 0.000002 0.000001 -0.000010 0.000008 0.000004 -0.000002 0.000001 0.000001 -8.082919 -7.104566 -6.553702 5.195349 6.896066 1.007518 -3.033998 -18.950613 11.551175 8.751030 -0.566510 1.516019 0.163289 -19.936821 -10.210643 -10.393380 0.539223 -1.960069 -0.793677 -9.967951 0.101746 1.318603 -0.077545 1.261647 -4.434055 -1.490960 4.525604 -0.000001 0.000008 0.000001 -0.000002 0.000004 -0.000022 -0.000000 -0.000001 -0.000001 0.000004 4.185545 5.729175 -13.529763 6.343601 0.781760 2.125773 5.862317 7.100412 8.122791 7.338682 -14.514242 -4.381114 5.689922 1.801948 -6.028530 15.477031 2.921864 -9.753130 2.579655 15.562056 0.000000 -0.000002 -0.000000 -0.000002 0.000004 -0.000022 -0.000001 -0.000001 -0.000000 
-0.949244 57.040962 -196.408325 -9.624936 -14.286952 -1.201967 -0.000002 0.000004 -0.000022 1.661407 -0.292828 -9.993054 4.000000 0.000003 -0.000010 2.203623 -1.187192 8.095565 4.002677 -11.084212 10.770057 -9.386122 4.300370 -7.155994 2.147802 -15.161016 -8.035190 -20.479301 -10.850211 -2.488834 -2.240272 -20.029095 -9.040070 10.982442 -18.012645 1.489638 0.706240 -5.721249 1.834931 14.049902 0.146353 -4.379845 1.343827 -3.510093 4.244967 0.000005 0.000003 0.000001 -0.000002 0.000004 -0.000022 5.363290 -0.409962 -4.358367 -3.999998 -0.000003 0.000024 5.391017 0.243128 3.346861 -4.614830 -11.686045 9.889532 2.370213 -0.553413 9.428144 -0.160748 -16.404387 -5.491832 6.874132 0.714472 -0.387942 2.412018 -21.935682 1.190902 2.256878 5.652598 -8.273260 -0.535009 -3.351779 3.806492 -11.642682 -0.876980 -2.689756 -0.877539 -2.975670 5.252162 -0.000000 0.000001 0.000003 -0.000002 0.000004 -0.000022 -0.000001 -0.000000 -0.000000 -0.000003 0.000003 -3.827291 8.403422 -2.698447 1.921416 0.000006 0.000004 -16.939274 7.841113 12.619241 -41.052080 0.000005 -0.000004 -14.393882 3.641395 -25.857238 44.753005 0.000013 0.000002 -14.393928 -0.549894 8.431275 -12.959455 -0.000012 0.000003 0.000000 -0.000000 0.000000 0.000003 8.318079 -6.780921 -6.728071 -7.826522 7.794104 -0.105008 4.762118 -18.232954 12.109550 -7.741091 -1.797523 1.290513 1.748851 -18.426302 -12.690533 -4.103318 -0.473828 2.318585 2.893215 -10.324434 3.420891 16.387794 0.559842 -8.565455 3.317155 -1.153629 6.178700 -0.000000 0.000002 0.000001 -0.000010 0.000008 0.000004 -0.000002 0.000001 0.000001 -8.082919 -7.104566 -6.553702 5.195349 6.896066 1.007518 -3.033998 -18.950613 11.551175 8.751030 -0.566510 1.516019 0.163289 -19.936821 -10.210643 -10.393380 0.539223 -1.960069 -0.793677 -9.967951 0.101746 1.318603 -0.077545 1.261647 -4.434055 -1.490960 4.525604 -0.000001 0.000008 0.000001 -0.000002 0.000004 -0.000022 -0.000000 -0.000001 -0.000001 0.000004 4.185545 5.729175 -13.529763 6.343601 0.781760 2.125773 5.862317 7.100412 8.122791 7.338682 -14.514242 -4.381114 5.689922 1.801948 -6.028530 15.477031 2.921864 -9.753130 2.579655 15.562056 0.000000 -0.000002 -0.000000 -0.000002 0.000004 -0.000022 -0.000001 -0.000001 -0.000000 
-0.956545 57.016174 -196.371582 -9.757092 -14.495859 -1.320674 -0.000002 0.000010 -0.000001 1.603823 -0.284375 -10.052083 3.999997 0.000008 -0.000011 2.143986 -1.034895 8.207423 4.002678 -11.084217 10.770051 -9.226896 3.812658 -7.270023 2.147802 -15.161010 -8.035205 -20.345168 -10.457085 -2.319089 -2.240272 -20.029093 -9.040083 11.385272 -17.963268 1.711616 0.706232 -5.721246 1.834930 13.646042 0.157163 -4.254018 1.343808 -3.510109 4.244953 0.000005 0.000000 -0.000001 -0.000002 0.000010 -0.000001 5.404692 -0.426397 -4.497592 -4.000000 -0.000000 0.000013 5.434423 0.320528 3.445353 -4.614824 -11.686038 9.889520 2.404591 -0.490069 9.548107 -0.160751 -16.404392 -5.491843 6.916115 0.718682 -0.390568 2.412030 -21.935684 1.190924 2.370504 5.725040 -8.305174 -0.535022 -3.351759 3.806494 -11.774889 -0.883752 -2.721162 -0.877551 -2.975659 5.252167 0.000001 -0.000002 0.000001 -0.000002 0.000010 -0.000001 -0.000000 -0.000000 -0.000000 -0.000002 0.000010 -3.827285 8.544876 -2.627097 1.961540 0.000000 -0.000000 -16.939270 7.970102 12.890318 -41.417646 -0.000001 -0.000001 -14.393895 3.754797 -25.982962 45.138132 0.000004 0.000007 -14.393911 -0.503439 8.489822 -13.003409 -0.000007 0.000006 0.000019 -0.000003 0.000001 0.000005 8.318090 -6.780935 -6.728060 -7.814396 7.789150 -0.125772 4.762120 -18.232971 12.109545 -7.740527 -1.797382 1.290431 1.748854 -18.426321 -12.690520 -4.198074 -0.500706 2.316560 2.893207 -10.324430 3.420874 16.394281 0.559570 -8.568856 3.317156 -1.153629 6.178682 0.000001 -0.000001 0.000001 -0.000004 0.000012 0.000023 -0.000001 -0.000001 -0.000001 -8.082920 -7.104614 -6.553697 5.239006 6.818299 1.025445 -3.034001 -18.950598 11.551198 8.721836 -0.565012 1.510829 0.163282 -19.936831 -10.210613 -10.291873 0.536461 -1.940179 -0.793667 -9.967950 0.101724 1.277756 -0.075579 1.222563 -4.434025 -1.490956 4.525625 -0.000001 0.000004 0.000001 -0.000002 0.000010 -0.000001 -0.000003 -0.000000 0.000000 -0.000006 4.185516 5.729179 -13.624120 6.352964 0.820550 2.125775 5.862305 7.100461 8.170149 7.382166 -14.792354 -4.381092 5.689909 1.801947 -5.821606 15.593923 2.952556 -9.753130 2.579654 15.562078 -0.000000 0.000001 0.000003 -0.000002 0.000010 -0.000001 -0.000000 -0.000000 -0.000000 
-0.963465 56.997581 -196.337280 -9.902256 -14.719734 -1.405152 -0.000000 0.000003 -0.000009 1.530452 -0.274561 -10.168203 3.999997 0.000003 -0.000024 2.063546 -0.895726 8.286794 4.002678 -11.084223 10.770052 -8.972716 3.522225 -7.267419 2.147806 -15.161006 -8.035241 -20.164547 -9.963893 -2.067684 -2.240278 -20.029102 -9.040050 11.266609 -18.055890 1.638551 0.706256 -5.721231 1.834947 13.822717 0.152541 -4.309067 1.343786 -3.510082 4.244920 0.000006 0.000003 0.000003 -0.000000 0.000003 -0.000009 5.433327 -0.433298 -4.545973 -3.999996 -0.000009 0.000022 5.476299 0.407685 3.432948 -4.614837 -11.686043 9.889520 2.464312 -0.444766 9.642238 -0.160734 -16.404388 -5.491828 6.965801 0.723666 -0.393683 2.412013 -21.935692 1.190914 2.460754 5.792709 -8.326760 -0.535005 -3.351761 3.806502 -11.906173 -0.890405 -2.752363 -0.877549 -2.975659 5.252179 0.000003 0.000000 0.000002 -0.000000 0.000003 -0.000009 0.000000 0.000000 0.000000 -0.000001 0.000004 -3.827271 8.691568 -2.517049 1.980981 -0.000004 0.000004 -16.939281 8.140692 13.170363 -41.987253 0.000002 -0.000000 -14.393893 3.960431 -26.205914 45.863002 0.000015 0.000004 -14.393892 -0.399877 8.584187 -13.190462 -0.000000 -0.000002 -0.000023 -0.000004 -0.000001 -0.000000 8.318097 -6.780917 -6.728055 -7.782429 7.739049 -0.125304 4.762118 -18.232962 12.109549 -7.737987 -1.796766 1.290046 1.748845 -18.426304 -12.690536 -4.306744 -0.533346 2.306481 2.893219 -10.324438 3.420890 16.410513 0.558912 -8.577348 3.317162 -1.153628 6.178705 0.000001 -0.000001 -0.000000 0.000003 0.000003 -0.000019 0.000002 0.000003 -0.000000 -8.082924 -7.104591 -6.553684 5.299233 6.755815 1.055731 -3.033998 -18.950598 11.551207 8.686040 -0.563166 1.504471 0.163294 -19.936819 -10.210626 -10.219963 0.534746 -1.928761 -0.793683 -9.967948 0.101733 1.242029 -0.073836 1.188378 -4.434022 -1.490962 4.525600 0.000001 0.000007 0.000001 -0.000000 0.000003 -0.000009 -0.000002 0.000001 -0.000000 0.000001 4.185535 5.729207 -13.716306 6.338778 0.872282 2.125786 5.862296 7.100441 8.316040 7.462305 -15.065908 -4.381106 5.689913 1.801966 -5.719637 15.828523 2.990547 -9.753135 2.579666 15.562072 -0.000002 -0.000001 0.000002 -0.000000 0.000003 -0.000009 -0.000000 0.000001 -0.000000 
